<svg width="40" height="40" viewBox="0 0 40 40" fill="none" xmlns="http://www.w3.org/2000/svg">
<rect width="40" height="40" rx="20" fill="#313A64"/>
<path d="M29.4209 13.6691L26.1409 26.7892C25.6709 28.6592 24.0709 29.4992 22.6709 29.4992C22.6609 29.4992 22.6509 29.4992 22.6509 29.4992C21.2409 29.4892 19.6309 28.6292 19.1909 26.7392L18.3309 23.0893L23.7109 17.7092C24.1009 17.3192 24.1009 16.6792 23.7109 16.2892C23.3209 15.8992 22.6809 15.8992 22.2909 16.2892L16.9109 21.6691L13.2609 20.8093C11.3709 20.3693 10.5109 18.7593 10.5009 17.3593C10.4909 15.9493 11.3309 14.3293 13.2109 13.8593L26.3309 10.5793C27.2009 10.3593 28.1109 10.6092 28.7509 11.2492C29.3909 11.8892 29.6409 12.7991 29.4209 13.6691Z" fill="white"/>
</svg>
